<?xml version="1.0" encoding="utf-8"?>
<!-- Generator: Adobe Illustrator 18.0.0, SVG Export Plug-In . SVG Version: 6.00 Build 0)  -->
<!DOCTYPE svg PUBLIC "-//W3C//DTD SVG 1.1//EN" "http://www.w3.org/Graphics/SVG/1.1/DTD/svg11.dtd">
<svg version="1.1" id="Calque_1" xmlns="http://www.w3.org/2000/svg" xmlns:xlink="http://www.w3.org/1999/xlink" x="0px" y="0px"
	 viewBox="0 0 60 40" enable-background="new 0 0 60 40" xml:space="preserve">
<g>
	<g>
		<path fill="#5EC1EC" d="M60,34.9c0,2.8-2.2,5-5,5H5c-2.8,0-5-2.2-5-5v-30c0-2.8,2.2-5,5-5h50c2.8,0,5,2.2,5,5V34.9z"/>
		<path fill="#5BBBE6" d="M58.5,1.4C59.4,2.3,60,3.5,60,4.9v15v15c0,1.4-0.6,2.6-1.5,3.5c-0.9,0.9-2.2,1.5-3.5,1.5H30H5
			c-1.4,0-2.6-0.6-3.5-1.5L58.5,1.4z"/>
		<g>
			<path fill="#FFFFFF" d="M17.6,24.8l-0.5-1.7h-3l-0.5,1.7h-2.8l3-9.3h3.3l3.1,9.3H17.6z M16.6,21l-0.4-1.5
				c-0.1-0.3-0.2-0.8-0.3-1.3c-0.1-0.5-0.2-0.9-0.3-1.2c0,0.2-0.1,0.6-0.2,1.1S15,19.6,14.6,21L16.6,21L16.6,21z"/>
			<path fill="#FFFFFF" d="M25.3,24.8l-1.9-6.7h-0.1c0.1,1.1,0.1,2,0.1,2.7v4h-2.2v-9.3h3.3l1.9,6.6h0.1l1.9-6.6h3.3v9.3h-2.3v-4.1
				c0-0.2,0-0.4,0-0.7s0-0.9,0.1-1.9h-0.1l-1.9,6.7L25.3,24.8L25.3,24.8z"/>
			<path fill="#FFFFFF" d="M39.1,24.8h-5.5v-9.3h5.5v2h-3V19h2.8v2h-2.8v1.8h3V24.8z"/>
			<path fill="#FFFFFF" d="M49.1,24.8h-2.9l-1.8-2.9l-1.8,2.9h-2.8l3.1-4.7l-2.9-4.5h2.8l1.7,2.9l1.6-2.9h2.9l-2.9,4.7L49.1,24.8z"
				/>
		</g>
		<g>
			<path fill="#FFFFFF" d="M17.6,24.8l-0.5-1.7h-3l-0.5,1.7h-2.8l3-9.3h3.3l3.1,9.3H17.6z M16.6,21l-0.4-1.5
				c-0.1-0.3-0.2-0.8-0.3-1.3c-0.1-0.5-0.2-0.9-0.3-1.2c0,0.2-0.1,0.6-0.2,1.1S15,19.6,14.6,21L16.6,21L16.6,21z"/>
			<path fill="#FFFFFF" d="M25.3,24.8l-1.9-6.7h-0.1c0.1,1.1,0.1,2,0.1,2.7v4h-2.2v-9.3h3.3l1.9,6.6h0.1l1.9-6.6h3.3v9.3h-2.3v-4.1
				c0-0.2,0-0.4,0-0.7s0-0.9,0.1-1.9h-0.1l-1.9,6.7L25.3,24.8L25.3,24.8z"/>
			<path fill="#FFFFFF" d="M39.1,24.8h-5.5v-9.3h5.5v2h-3V19h2.8v2h-2.8v1.8h3V24.8z"/>
			<path fill="#FFFFFF" d="M49.1,24.8h-2.9l-1.8-2.9l-1.8,2.9h-2.8l3.1-4.7l-2.9-4.5h2.8l1.7,2.9l1.6-2.9h2.9l-2.9,4.7L49.1,24.8z"
				/>
		</g>
		<path fill="#56B1D9" d="M30-0.1"/>
	</g>
	<g>
		<path fill="#9BCEE0" d="M55,0.9c2.2,0,4,1.8,4,4v30c0,2.2-1.8,4-4,4H5c-2.2,0-4-1.8-4-4v-30c0-2.2,1.8-4,4-4H55 M55-0.1H5
			c-2.8,0-5,2.2-5,5v30c0,2.8,2.2,5,5,5h50c2.8,0,5-2.2,5-5v-30C60,2.2,57.8-0.1,55-0.1L55-0.1z"/>
	</g>
</g>
</svg>
