<?xml version="1.0" encoding="utf-8"?>
<!-- Generator: Adobe Illustrator 18.0.0, SVG Export Plug-In . SVG Version: 6.00 Build 0)  -->
<!DOCTYPE svg PUBLIC "-//W3C//DTD SVG 1.1//EN" "http://www.w3.org/Graphics/SVG/1.1/DTD/svg11.dtd">
<svg version="1.1" id="Calque_1" xmlns="http://www.w3.org/2000/svg" xmlns:xlink="http://www.w3.org/1999/xlink" x="0px" y="0px"
	 viewBox="0 0 60 40" enable-background="new 0 0 60 40" xml:space="preserve">
<g>
	<path fill="#FFF9F0" d="M60,35c0,2.8-2.2,5-5,5H5c-2.8,0-5-2.2-5-5V5c0-2.8,2.2-5,5-5h50c2.8,0,5,2.2,5,5V35z"/>
	<g>
		<path fill="#414042" d="M15.1,19.9c0,1-0.3,1.8-0.9,2.3c-0.6,0.5-1.4,0.8-2.5,0.8h-1.7V17H12c1,0,1.8,0.3,2.3,0.8
			C14.9,18.3,15.1,19,15.1,19.9z M13.8,20c0-1.3-0.6-2-1.7-2h-0.7v4h0.6C13.2,22,13.8,21.3,13.8,20z"/>
		<path fill="#414042" d="M16.2,23V17h1.3V23H16.2z"/>
		<path fill="#414042" d="M22.6,21.4c0,0.6-0.2,1-0.6,1.3c-0.4,0.3-0.9,0.5-1.6,0.5c-0.6,0-1.2-0.1-1.7-0.4v-1.2
			c0.4,0.2,0.8,0.3,1,0.4c0.3,0.1,0.5,0.1,0.8,0.1c0.3,0,0.5-0.1,0.7-0.2c0.1-0.1,0.2-0.3,0.2-0.5c0-0.1,0-0.2-0.1-0.3
			c-0.1-0.1-0.2-0.2-0.3-0.3c-0.1-0.1-0.4-0.2-0.8-0.4c-0.4-0.2-0.6-0.3-0.8-0.5c-0.2-0.2-0.3-0.3-0.4-0.6s-0.2-0.5-0.2-0.8
			c0-0.5,0.2-1,0.5-1.3c0.4-0.3,0.9-0.5,1.5-0.5c0.3,0,0.6,0,0.9,0.1c0.3,0.1,0.6,0.2,0.9,0.3l-0.4,1c-0.3-0.1-0.6-0.2-0.8-0.3
			c-0.2-0.1-0.4-0.1-0.6-0.1c-0.2,0-0.4,0.1-0.6,0.2c-0.1,0.1-0.2,0.3-0.2,0.4c0,0.1,0,0.2,0.1,0.3c0.1,0.1,0.1,0.2,0.3,0.2
			s0.4,0.2,0.8,0.4c0.6,0.3,1,0.5,1.2,0.8C22.5,20.6,22.6,21,22.6,21.4z"/>
		<path fill="#414042" d="M26.3,17.9c-0.5,0-0.9,0.2-1.1,0.5c-0.3,0.4-0.4,0.9-0.4,1.5c0,1.4,0.5,2,1.5,2c0.4,0,0.9-0.1,1.6-0.3v1.1
			c-0.5,0.2-1.1,0.3-1.7,0.3c-0.9,0-1.6-0.3-2-0.8c-0.5-0.5-0.7-1.3-0.7-2.3c0-0.6,0.1-1.2,0.3-1.7c0.2-0.5,0.6-0.8,1-1.1
			c0.4-0.3,0.9-0.4,1.5-0.4c0.6,0,1.2,0.1,1.8,0.4l-0.4,1c-0.2-0.1-0.5-0.2-0.7-0.3C26.8,18,26.5,17.9,26.3,17.9z"/>
		<path fill="#414042" d="M38.2,17h1.3L37.4,23H36L34,17h1.3l1.1,3.6c0.1,0.2,0.1,0.5,0.2,0.7c0.1,0.3,0.1,0.5,0.1,0.6
			c0-0.3,0.1-0.7,0.3-1.3L38.2,17z"/>
		<path fill="#414042" d="M43.8,23h-3.5V17h3.5V18h-2.2v1.3h2.1v1.1h-2.1V22h2.2V23z"/>
		<path fill="#414042" d="M46.3,20.7V23h-1.3V17h1.8c0.8,0,1.4,0.1,1.8,0.5c0.4,0.3,0.6,0.8,0.6,1.4c0,0.4-0.1,0.7-0.3,1
			c-0.2,0.3-0.5,0.5-0.8,0.7c0.9,1.4,1.5,2.3,1.8,2.6h-1.4L47,20.7L46.3,20.7L46.3,20.7z M46.3,19.7h0.4c0.4,0,0.7-0.1,0.9-0.2
			c0.2-0.1,0.3-0.4,0.3-0.6c0-0.3-0.1-0.5-0.3-0.6S47.1,18,46.7,18h-0.4L46.3,19.7L46.3,19.7z"/>
		<circle fill="#E6A124" cx="31.1" cy="20" r="3"/>
	</g>
	<path fill="#E6A124" d="M60,27.5V35c0,0.7-0.1,1.3-0.4,1.9c-0.3,0.6-0.6,1.1-1.1,1.6s-1,0.8-1.6,1.1C56.3,39.9,55.7,40,55,40H32.5
		H10.1L60,27.5z"/>
	<path opacity="8.000000e-02" fill="#FFFFFF" enable-background="new    " d="M58.5,1.5C59.4,2.4,60,3.6,60,5v15v15
		c0,1.4-0.6,2.6-1.5,3.5C57.6,39.4,56.4,40,55,40H30H5c-1.4,0-2.6-0.6-3.5-1.5L58.5,1.5z"/>
	<g>
		<path fill="#BFBFBF" d="M55,1c2.2,0,4,1.8,4,4v30c0,2.2-1.8,4-4,4H5c-2.2,0-4-1.8-4-4V5c0-2.2,1.8-4,4-4H55 M55,0H5
			C2.2,0,0,2.2,0,5v30c0,2.8,2.2,5,5,5h50c2.8,0,5-2.2,5-5V5C60,2.2,57.8,0,55,0L55,0z"/>
	</g>
</g>
</svg>
