<?xml version="1.0" encoding="utf-8"?>
<!-- Generator: Adobe Illustrator 18.0.0, SVG Export Plug-In . SVG Version: 6.00 Build 0)  -->
<!DOCTYPE svg PUBLIC "-//W3C//DTD SVG 1.1//EN" "http://www.w3.org/Graphics/SVG/1.1/DTD/svg11.dtd">
<svg version="1.1" id="Calque_1" xmlns="http://www.w3.org/2000/svg" xmlns:xlink="http://www.w3.org/1999/xlink" x="0px" y="0px"
	 viewBox="0 0 60 40" enable-background="new 0 0 60 40" xml:space="preserve">
<g>
	<path fill="#F3F4F4" d="M60,35c0,2.8-2.2,5-5,5H5c-2.8,0-5-2.2-5-5V5c0-2.8,2.2-5,5-5h50c2.8,0,5,2.2,5,5V35z"/>
	<g>
		<path fill="#FFFFFF" d="M30,0"/>
		<g>
			<path fill="#5565AF" d="M17,30H9V15c0-2.8,3.2-5,6-5h6v15C21,27.8,19.8,30,17,30z"/>
			<path fill="#EA564B" d="M31,30h-8V15c0-2.8,3.2-5,6-5h6v15C35,27.8,33.8,30,31,30z"/>
			<path fill="#99CD76" d="M45,30h-8V15c0-2.8,3.2-5,6-5h6v15C49,27.8,47.8,30,45,30z"/>
		</g>
		<path opacity="8.000000e-02" fill="#FFFFFF" enable-background="new    " d="M58.5,1.5C59.4,2.4,60,3.6,60,5v15v15
			c0,1.4-0.6,2.6-1.5,3.5C57.6,39.4,56.4,40,55,40H30H5c-1.4,0-2.6-0.6-3.5-1.5L58.5,1.5z"/>
		<g>
			<path fill="#B7B7B7" d="M55,1c2.2,0,4,1.8,4,4v30c0,2.2-1.8,4-4,4H5c-2.2,0-4-1.8-4-4V5c0-2.2,1.8-4,4-4H55 M55,0H5
				C2.2,0,0,2.2,0,5v30c0,2.8,2.2,5,5,5h50c2.8,0,5-2.2,5-5V5C60,2.2,57.8,0,55,0L55,0z"/>
		</g>
	</g>
</g>
</svg>
