<?xml version="1.0" encoding="UTF-8" standalone="no"?>
<svg width="30px" height="53px" viewBox="0 0 30 53" version="1.1" xmlns="http://www.w3.org/2000/svg" xmlns:xlink="http://www.w3.org/1999/xlink" xmlns:sketch="http://www.bohemiancoding.com/sketch/ns">
    <!-- Generator: Sketch 3.1.1 (8761) - http://www.bohemiancoding.com/sketch -->
    <title>1465658172_Photo_equipment_1</title>
    <desc>Created with Sketch.</desc>
    <defs></defs>
    <g id="Page-1" stroke="none" stroke-width="1" fill="none" fill-rule="evenodd" sketch:type="MSPage">
        <g id="Artboard-15" sketch:type="MSArtboardGroup" transform="translate(-173.000000, -440.000000)" fill="#FFFFFF">
            <g id="SHOT-ICON-3" sketch:type="MSLayerGroup" transform="translate(148.000000, 426.000000)">
                <g id="Group-4" transform="translate(-0.385597, -0.469825)" sketch:type="MSShapeGroup">
                    <g id="Group" transform="translate(0.266530, 0.267017)">
                        <g id="1465658172_Photo_equipment_1" transform="translate(25.900609, 14.257034)">
                            <g id="Group">
                                <path d="M28.8467289,51.0953741 L21.2675221,27.772419 C21.0982412,27.2895929 20.4701844,25.9540468 18.6800588,25.9540468 L17.1524414,25.9540468 C15.6550819,25.9540468 15.7213223,24.8132679 15.7213223,24.8132679 C15.7213223,23.9744599 16.5587314,23.8918066 16.8425019,23.8860781 L19.0382475,23.8860781 C20.1725116,23.8860781 20.3990373,23.3230538 20.4382908,22.9777104 L20.4382908,22.5448036 C20.430113,22.2837502 20.3000856,21.4776761 18.9082201,21.4776761 L9.80221368,21.4776761 C8.33920107,21.4776761 8.40462365,22.6503707 8.40462365,22.6503707 L8.40462365,22.7076551 C8.41116591,22.9490682 8.52810879,23.8860781 9.91670321,23.8860781 L12.1124488,23.8860781 C12.1124488,23.8860781 13.1199567,23.8705295 13.1199567,24.8631872 L13.1199567,24.9368386 C13.1142322,25.17907 12.9964715,25.9532285 11.6896553,25.9532285 L10.2250072,25.9532285 C8.16910234,25.9204945 7.59011244,27.7216813 7.58438796,27.7364116 L0.0763282584,50.8408675 C0.0673326526,50.8736014 -0.349736343,52.2647953 0.792705592,52.2647953 L1.58350112,52.2647953 C1.81329796,52.2476099 2.21155796,52.1346777 2.38901673,51.5863837 L9.31399762,30.2790229 C9.44402501,29.9017639 10.0213793,28.5678545 11.6880198,28.5727646 C11.9178166,28.5776747 13.1191389,28.697972 13.1191389,30.6554636 L13.1191389,42.5518074 C13.1191389,44.0387481 14.0080683,44.1876876 14.3122833,44.1950528 L14.3899726,44.1950528 C14.6802854,44.1876876 15.7205045,44.0371114 15.7205045,42.2432897 L15.7205045,30.2994816 C15.7205045,28.7969923 16.7828038,28.611227 17.0943788,28.5883132 C18.6661565,28.6685115 19.2770399,29.6431655 19.4823033,30.1456319 L26.408102,51.4538111 C26.6501655,52.1968723 27.238151,52.2598852 27.4008897,52.2647953 L27.8858347,52.2647953 C29.0053787,52.2737971 28.9464984,51.4898185 28.8467289,51.0953741 L28.8467289,51.0953741 Z" id="Shape"></path>
                                <path d="M25.0301387,3.97236619 L20.8324619,3.97236619 C18.9523803,3.97236619 18.6211785,2.94942956 18.5729293,2.42159426 L18.5729293,2.11471327 C18.5729293,2.11471327 18.5426714,-0.0293619011 15.7916516,-0.0293619011 L12.6987987,-0.0293619011 C10.2086515,-0.0293619011 10.3182343,2.01405631 10.3182343,2.01405631 C10.3182343,2.01405631 10.3885636,3.97236619 7.99818583,3.97236619 L3.62877476,3.97236619 C3.0898562,3.98300473 1.36842436,4.19741225 1.36842436,6.55753164 L1.36842436,16.4390995 C1.37905553,16.9571146 1.57695886,18.8785987 3.94116762,18.8785987 L25.0105119,18.8785987 C27.0762301,18.8785987 27.4630412,17.5528729 27.5219215,16.8359989 L27.5219215,6.53625456 C27.5219215,3.90362485 25.0301387,3.97236619 25.0301387,3.97236619 L25.0301387,3.97236619 Z M25.07021,14.9611606 C25.0301387,15.559374 24.7512749,16.6674189 23.2023952,16.6674189 L5.9291965,16.6674189 C3.99268791,16.6674189 3.830767,15.133014 3.82013583,14.7377513 L3.82013583,7.92008323 C3.82913144,7.55673614 3.97796782,6.13444505 5.7484666,6.13444505 L9.34343778,6.13444505 C12.0543863,6.13444505 12.2866364,3.23830687 12.2866364,3.23830687 L12.2923609,3.24158026 C12.4640952,2.25874275 13.3154066,2.16054083 13.5574702,2.15481239 L15.0883588,2.15481239 C15.0883588,2.15481239 16.357557,2.13599035 16.586536,3.34223723 L16.5996205,3.33569043 C16.5996205,3.33569043 16.6544119,6.1336267 19.5076545,6.1336267 L23.1590527,6.1336267 C23.5491349,6.14262854 25.0710278,6.28174792 25.0710278,7.94217866 L25.0710278,14.9611606 L25.07021,14.9611606 Z" id="Shape"></path>
                                <path d="M14.4455818,7.58210497 C12.4600063,7.58210497 10.8506106,9.19343474 10.8506106,11.1795685 C10.8506106,13.1657023 12.4608241,14.7778504 14.4455818,14.7778504 C16.4319751,14.7778504 18.040553,13.1665206 18.040553,11.1795685 C18.040553,9.19261639 16.4319751,7.58210497 14.4455818,7.58210497 L14.4455818,7.58210497 Z M14.4881065,12.9291993 C13.5223056,12.9291993 12.7380523,12.1444023 12.7380523,11.1762951 C12.7380523,10.2081879 13.5223056,9.42420925 14.4881065,9.42420925 C15.455543,9.42420925 16.2389785,10.2081879 16.2389785,11.1762951 C16.2389785,12.143584 15.455543,12.9291993 14.4881065,12.9291993 L14.4881065,12.9291993 Z" id="Shape"></path>
                            </g>
                        </g>
                    </g>
                </g>
            </g>
        </g>
    </g>
</svg>