<?xml version="1.0" encoding="utf-8"?>
<!-- Generator: Adobe Illustrator 18.0.0, SVG Export Plug-In . SVG Version: 6.00 Build 0)  -->
<!DOCTYPE svg PUBLIC "-//W3C//DTD SVG 1.1//EN" "http://www.w3.org/Graphics/SVG/1.1/DTD/svg11.dtd">
<svg version="1.1" id="Layer_1" xmlns="http://www.w3.org/2000/svg" xmlns:xlink="http://www.w3.org/1999/xlink" x="0px" y="0px"
	 viewBox="0 0 500 500" enable-background="new 0 0 500 500" xml:space="preserve">
<path d="M473.7,374.1H26c-3.3,8.8-13.8,16.5-18.5,19.6v1.5v42.2h485v-42.2v-1.4C487.6,390.8,476.7,383.2,473.7,374.1L473.7,374.1z"
	/>
<rect x="236.3" y="68.4" width="27.3" height="41"/>
<path d="M287.5,82h-75c-7.5,0-13.7-6.1-13.7-13.7s6.1-13.7,13.7-13.7h75c7.5,0,13.7,6.1,13.7,13.7S295,82,287.5,82z"/>
<path d="M479.9,330.3c-5.6-2.8-12-8.2-12.5-10.7c-12-83.7-47.5-195.1-217.3-195.1c-169.8,0-205.4,111.4-217.4,195.2
	c-0.5,2.4-7,7.8-12.5,10.6c-5.7,2.8-8.7,8.8-7.2,15c1.5,6.2,7,10.2,13.3,10.2h447.7c6.4,0,11.9-4,13.3-10.2
	C488.6,339,485.6,333.1,479.9,330.3z M173.6,199.6c-19.2,10-36.5,22.2-51.3,36.2c-2.6,2.5-6,3.7-9.4,3.7c-3.6,0-7.2-1.4-9.9-4.3
	c-5.2-5.5-5-14.1,0.5-19.3c16.7-15.8,36-29.4,57.4-40.6c6.7-3.5,15-0.9,18.4,5.8C182.9,187.8,180.3,196.1,173.6,199.6z"/>
</svg>
