<?xml version="1.0" encoding="utf-8"?>
<!-- Generator: Adobe Illustrator 18.0.0, SVG Export Plug-In . SVG Version: 6.00 Build 0)  -->
<!DOCTYPE svg PUBLIC "-//W3C//DTD SVG 1.1//EN" "http://www.w3.org/Graphics/SVG/1.1/DTD/svg11.dtd">
<svg version="1.1" id="Layer_1" xmlns="http://www.w3.org/2000/svg" xmlns:xlink="http://www.w3.org/1999/xlink" x="0px" y="0px"
	 viewBox="0 0 128 128" enable-background="new 0 0 128 128" xml:space="preserve">
<g>
	<path d="M27.2,75c-1.6-0.2-3.2-0.3-4.6-0.7c-4.9-1.1-8.4-5.6-8.4-10.6c0-5,3.5-9.6,8.5-10.7c0.9-0.2,1-0.5,0.9-1.3
		c-0.5-2.6-0.6-5.3-1.4-7.9c-0.5-1.7-1.7-3.3-2.7-4.8c-1.1-1.5-2.3-3-3.5-4.4c-1.2-1.4-2.5-2.8-3.8-4.3c2.3-2.3,4.7-4.6,7.1-6.9
		c2.4,2,4.8,4.2,7.4,6.1c2.6,2,5.3,3.8,7.9,5.7c0.1-0.1,0.3-0.2,0.4-0.4c-1.3-2.2-2.6-4.4-4-6.8c2.6-1.8,5.3-3.8,8.1-5.8
		c3.3,4.4,6.9,8.5,10.9,12.2c0.1-0.1,0.3-0.1,0.4-0.2c-0.8-3.2-1.6-6.5-2.4-9.9c3-1,6.1-2.1,9.1-3.1c2.3,4.9,4.6,9.7,7,14.9
		c3.7-4.6,6.5-9.3,9.1-14.1c3,1.5,6,2.9,9,4.4c-0.4,0.9-0.8,1.8-1.1,2.7c0.1,0.1,0.3,0.2,0.4,0.3c2.5-2.2,4.9-4.5,7.5-6.8
		c2.4,2.2,4.8,4.5,7.2,6.7c-1.6,1.9-3.1,3.8-4.6,5.7c0.1,0.1,0.2,0.2,0.3,0.3c5.9-3.4,11.2-7.6,16.2-12.1c2.3,2.4,4.7,4.7,7,7
		c-1.5,1.7-3.1,3.5-4.7,5.5c-1.9,2.4-3.7,4.8-5.3,7.4c-0.6,0.9-0.6,2.3-0.8,3.5c-0.3,2-0.6,4-1,6.1c7.2,1.8,10.7,6.4,9.1,13.7
		c-1.4,6.2-6.3,8.6-12.6,8.4c-1.1,6.9-2.2,13.7-3.3,20.6c-0.5,0-1.1,0-1.6,0c-20.2,0-40.4,0-60.6,0c-1.1,0-2.2,0-3.3,0.1
		c-0.7,0.1-1-0.3-1.1-0.9c-0.9-6.1-1.8-12.2-2.7-18.3C27.5,75.8,27.3,75.4,27.2,75z"/>
	<path d="M32.5,108.7c20.7,0,41.3,0,62.2,0c-0.2,1.4-0.5,2.7-0.7,4c-0.2,1.4-0.5,2.9-0.7,4.3c-0.4,3.1-3.3,5.8-6.4,5.8
		c-15.6,0-31.2,0-46.7,0c-3.2,0-6-2.7-6.5-5.9C33.4,114.2,33,111.5,32.5,108.7z"/>
	<path d="M31.8,104.4c-0.2-1.5-0.5-3-0.7-4.5c21.7,0,43.3,0,65,0c-0.3,1.5-0.6,3-0.9,4.5C74.1,104.4,53,104.4,31.8,104.4z"/>
	<path d="M75.1,18.2c1.4-3.5,2.6-6.8,4-10.1c0.3-0.6,1.3-1.1,2-1.1c3.5-0.2,6.3,1.3,8.3,4.2c0.5,0.8,0.6,1.5,0,2.4
		c-1.6,2.7-3.2,5.4-4.7,8.1c-0.3,0.6-0.7,0.8-1.3,0.5C80.7,20.9,78,19.6,75.1,18.2z"/>
	<path d="M91.8,19.4c2.2-2.8,4.4-5.6,6.6-8.4c0.7-0.9,1.7-1,2.6-0.7c3.4,1,5.6,3.2,6.6,6.5c0.2,0.6-0.1,1.6-0.5,2
		c-2.4,2.4-4.9,4.6-7.4,6.9c-0.1,0.1-0.3,0.2-0.4,0.3C96.8,23.9,94.3,21.7,91.8,19.4z"/>
	<path d="M36.7,18.8c-2.7,1.9-5.4,3.7-8.3,5.7c-1.3-1.5-2.5-3.1-3.8-4.6c-0.9-1.1-1.8-2.1-2.7-3.2c-0.7-0.8-0.9-1.7-0.4-2.8
		c1.4-2.9,3.8-4.5,6.8-5.3c1.5-0.4,2.5,0.1,3.2,1.4C33.2,13,34.9,15.9,36.7,18.8z"/>
	<path d="M46.5,20.4c-1.4-3.3-2.8-6.4-4.1-9.6c-0.2-0.6-0.1-1.6,0.3-2.1c2.1-2.7,5-3.7,8.3-3.5c1.5,0.1,2.2,0.8,2.6,2.3
		c0.8,3.2,1.6,6.4,2.5,9.8C52.9,18.2,49.8,19.3,46.5,20.4z"/>
	<path d="M15.9,19.8c-2.3,2.6-4.5,5-6.8,7.5c-2.1-1.8-4-3.4-6-5.1c-0.5-0.5-1.1-0.9-1.6-1.4c-1.4-1.2-1.5-1.8-0.8-3.5
		c1-2.7,2.9-4.5,5.5-5.6c1.5-0.6,2.4-0.4,3.4,0.8C11.9,15,14,17.6,15.9,19.8z"/>
	<path d="M118.6,26.9c-2.5-2.4-4.8-4.6-7.3-6.9c2.4-2.8,4.7-5.6,7.2-8.3c0.5-0.5,1.8-0.6,2.5-0.4c3.2,1.2,5.4,3.5,6.2,6.8
		c0.1,0.6-0.2,1.5-0.7,2C124,22.4,121.3,24.6,118.6,26.9z"/>
</g>
</svg>
