<?xml version="1.0" encoding="utf-8"?>
<!-- Generator: Adobe Illustrator 18.0.0, SVG Export Plug-In . SVG Version: 6.00 Build 0)  -->
<!DOCTYPE svg PUBLIC "-//W3C//DTD SVG 1.1//EN" "http://www.w3.org/Graphics/SVG/1.1/DTD/svg11.dtd">
<svg version="1.1" id="Calque_1" xmlns="http://www.w3.org/2000/svg" xmlns:xlink="http://www.w3.org/1999/xlink" x="0px" y="0px"
	 viewBox="0 0 30 30" enable-background="new 0 0 30 30" xml:space="preserve" fill="black">
<g>
	<path d="M11.1,32.3C11,32,11,31.8,10.9,31.6c-0.3-1.4-0.6-2.7-0.8-4.1c0-0.2-0.1-0.3-0.3-0.3c-2.7-1.5-4.8-3.5-6-6.4
		c-1.9-4.5-1.3-8.7,1.7-12.5c2-2.5,4.6-4.1,7.6-4.9c4.4-1.2,8.7-0.7,12.6,1.7c2.8,1.7,4.8,4,5.9,7.1c1.4,4.2,0.6,8.1-2.1,11.5
		c-2,2.6-4.7,4.1-7.8,5c-1.7,0.5-3.5,0.6-5.2,0.5c-0.3,0-0.6-0.1-1-0.1c-0.1,0-0.2,0-0.3,0.1c-1.3,1-2.6,2-3.9,3.1
		C11.3,32.2,11.2,32.2,11.1,32.3z M11.8,30.4c0.1,0,0.1-0.1,0.1-0.1c1.2-0.9,2.4-1.9,3.6-2.8c0.1-0.1,0.2-0.1,0.3-0.1
		c1.1,0.1,2.1,0.1,3.2,0c1.3-0.1,2.5-0.4,3.7-0.8c2.8-1,5.1-2.7,6.6-5.2c1.3-2.2,1.9-4.5,1.5-7c-0.4-2.3-1.4-4.3-3.1-6
		c-1.1-1.1-2.4-2-3.8-2.7c-1.7-0.8-3.5-1.3-5.4-1.4c-1-0.1-2.1,0-3.1,0.1c-1.1,0.1-2.1,0.4-3.1,0.8c-2.7,1-5,2.6-6.6,5.1
		c-1.3,2-1.9,4.2-1.6,6.6c0.1,1.3,0.5,2.5,1.1,3.7c1.2,2.4,3.1,4.1,5.4,5.3c0.2,0.1,0.2,0.2,0.3,0.4c0.2,0.8,0.3,1.6,0.5,2.4
		C11.5,29.1,11.6,29.7,11.8,30.4z"/>
	<path d="M16.1,17.8c-0.7,0.4-1.4,0.9-2.1,1.3c-0.9,0.5-1.8,0.9-2.8,1.1c-0.3,0.1-0.6,0.1-0.9,0.1c-0.2,0-0.3-0.1-0.4-0.3
		c-0.1-0.3-0.3-0.7-0.4-1c-0.3-1.3-0.3-2.5-0.2-3.8c0-0.7,0.1-1.4,0.3-2.1c0.1-0.2,0.2-0.5,0.3-0.7c0.1-0.2,0.2-0.2,0.4-0.2
		c0.9,0,1.7,0.3,2.5,0.6c1.2,0.5,2.2,1.1,3.3,1.8c0.1,0,0.2,0,0.2,0c0.1,0,0.2-0.1,0.2-0.1c0.6,0,1.1,0,1.7,0c0,0,0.1,0,0.1,0
		c0.3,0.2,0.4,0,0.7-0.1c1.4-0.9,2.8-1.7,4.5-2.1c0.3-0.1,0.6-0.1,1-0.1c0.3,0,0.5,0.1,0.5,0.3c0.2,0.4,0.3,0.8,0.4,1.2
		c0.2,1.2,0.2,2.4,0.2,3.6c0,0.7-0.1,1.4-0.3,2.1c-0.1,0.3-0.2,0.5-0.3,0.7c-0.1,0.1-0.2,0.2-0.4,0.2c-1.2,0-2.3-0.5-3.3-1
		c-0.8-0.4-1.6-0.9-2.3-1.4c-0.1,0-0.1,0-0.2,0c-0.2,0-0.4,0.1-0.6,0.1c-0.4,0-0.7,0-1.1,0C16.7,18,16.3,18,16.1,17.8z"/>
</g>
</svg>
