<?xml version="1.0" ?><!DOCTYPE svg  PUBLIC '-//W3C//DTD SVG 1.1//EN'  'http://www.w3.org/Graphics/SVG/1.1/DTD/svg11.dtd'><svg enable-background="new 0 0 128 128" height="128px" id="Layer_1" version="1.1" viewBox="0 0 128 128" width="128px" xml:space="preserve" xmlns="http://www.w3.org/2000/svg" xmlns:xlink="http://www.w3.org/1999/xlink"><g><path d="M112.82,46.245l-0.146-0.274c0.371,0.021,0.76-0.006,1.172-0.129l6.309-1.892   c2.115-0.634,3.847-2.336,3.847-3.78c0-1.443-1.782-2.892-3.96-3.217l-6.08-0.912c-2.178-0.328-3.96,1.295-3.96,3.606v1.292   l-5.247-9.875c-2.064-3.885-5.253-7.814-11.311-9.691C93.443,21.372,87.5,20,64,20s-29.443,1.372-29.443,1.372   c-6.557,2.211-9.246,5.806-11.31,9.691L18,40.938v-1.292c0-2.311-1.782-3.934-3.96-3.606l-6.08,0.913   C5.782,37.278,4,38.726,4,40.169c0,1.444,1.73,3.146,3.846,3.78l6.309,1.892c0.411,0.123,0.799,0.15,1.171,0.129l-0.146,0.274   C6.8,48.521,0,57.316,0,65.994V87.67c0,2.943,1.616,5.523,4,6.912v8.087C4,105.602,6.4,108,9.333,108h5.334   C17.6,108,20,105.602,20,102.669v-7h87.999v7c0,2.933,2.399,5.331,5.333,5.331h5.334c2.934,0,5.333-2.398,5.333-5.331v-8.086   c2.385-1.39,4.001-3.97,4.001-6.913V65.994C128,57.316,121.199,48.519,112.82,46.245z M29.389,71.991l-21.16-0.675   C5.902,71.243,4,69.368,4,67.152v-4.034c0-2.216,1.841-3.563,4.088-2.993l17.21,4.375c2.249,0.57,5.042,2.52,6.205,4.331   S31.716,72.064,29.389,71.991z M20.289,45.157l6.492-12.22c1.925-3.623,4.014-6.058,8.965-7.748   c0.527-0.126,7.582-1.192,28.256-1.192c20.036,0,27.4,1.001,28.191,1.179l0.152,0.067l-0.084-0.052   c0.006,0.001,0.012,0.003,0.016,0.004c4,1.246,6.76,3.634,8.943,7.743l6.492,12.219c-6-0.923-18.709-2.161-43.711-2.162   C38.996,42.995,26.288,44.234,20.289,45.157z M124,67.152c0,2.216-1.902,4.091-4.229,4.164l-21.16,0.675   c-2.327,0.073-3.277-1.349-2.114-3.16s3.956-3.761,6.205-4.331l17.21-4.375c2.248-0.571,4.089,0.775,4.089,2.993L124,67.152z" fill="#010101"/></g></svg>