<?xml version="1.0" encoding="utf-8"?>
<!-- Generator: Adobe Illustrator 18.0.0, SVG Export Plug-In . SVG Version: 6.00 Build 0)  -->
<!DOCTYPE svg PUBLIC "-//W3C//DTD SVG 1.1//EN" "http://www.w3.org/Graphics/SVG/1.1/DTD/svg11.dtd">
<svg version="1.1" id="Calque_1" xmlns="http://www.w3.org/2000/svg" xmlns:xlink="http://www.w3.org/1999/xlink" x="0px" y="0px"
	 viewBox="0 0 60 40" enable-background="new 0 0 60 40" xml:space="preserve">
<g>
	<path fill="#F3F4F4" d="M60,35c0,2.8-2.2,5-5,5H5c-2.8,0-5-2.2-5-5V5c0-2.8,2.2-5,5-5h50c2.8,0,5,2.2,5,5V35z"/>
	<path fill="#5565AF" d="M1,10V5c0-2.8,2.2-5,5-5h48c2.8,0,5,2.2,5,5v5"/>
	<path fill="#E6A124" d="M59,30v5c0,2.8-2.2,4-5,4H6c-2.8,0-5-1.2-5-4v-5"/>
	<g>
		<path fill="#5565AF" d="M17.4,23.4c0.4-1.1,0.7-1.9,0.9-2.2l3.4-6.9h2.5l-5.8,11.4h-2.6l-1-11.4h2.3l0.4,6.9c0,0.2,0,0.6,0,1
			C17.4,22.7,17.4,23.1,17.4,23.4L17.4,23.4z"/>
		<path fill="#5565AF" d="M23.1,25.7l2.4-11.4h2.4l-2.4,11.4H23.1z"/>
		<path fill="#5565AF" d="M35.2,22.3c0,1.1-0.4,1.9-1.2,2.6c-0.8,0.6-1.8,0.9-3.1,0.9c-1.2,0-2.1-0.2-2.8-0.7V23
			c1,0.6,1.9,0.8,2.8,0.8c0.6,0,1-0.1,1.4-0.3c0.3-0.2,0.5-0.5,0.5-0.9c0-0.2,0-0.4-0.1-0.6c-0.1-0.2-0.2-0.3-0.3-0.5
			c-0.1-0.1-0.5-0.4-1-0.8c-0.7-0.5-1.2-1-1.5-1.5c-0.3-0.5-0.4-1-0.4-1.6c0-0.7,0.2-1.3,0.5-1.8c0.3-0.5,0.8-0.9,1.4-1.2
			c0.6-0.3,1.3-0.4,2.1-0.4c1.1,0,2.2,0.3,3.1,0.8l-0.9,1.8c-0.8-0.4-1.6-0.6-2.2-0.6c-0.4,0-0.8,0.1-1.1,0.4
			c-0.3,0.2-0.4,0.5-0.4,0.9c0,0.3,0.1,0.6,0.3,0.8c0.2,0.2,0.6,0.6,1.2,0.9c0.6,0.4,1.1,0.9,1.4,1.4C35,21.1,35.2,21.7,35.2,22.3z"
			/>
		<path fill="#5565AF" d="M42.8,23h-3.7l-1.3,2.7h-2.5l6-11.5h2.9l1.1,11.5H43L42.8,23z M42.7,21l-0.2-2.7c-0.1-0.7-0.1-1.3-0.1-2
			V16c-0.2,0.6-0.5,1.3-0.9,2l-1.5,3H42.7z"/>
	</g>
	<path fill="#FFFFFF" d="M30,0"/>
	<path opacity="4.000000e-02" fill="#FFFFFF" enable-background="new    " d="M58.5,1.5C59.4,2.4,60,3.6,60,5v15v15
		c0,1.4-0.6,2.6-1.5,3.5S56.4,40,55,40H30H5c-1.4,0-2.6-0.6-3.5-1.5L58.5,1.5z"/>
	<g>
		<path fill="#F8F8F9" d="M55,1c2.2,0,4,1.8,4,4v30c0,2.2-1.8,4-4,4H5c-2.2,0-4-1.8-4-4V5c0-2.2,1.8-4,4-4H55 M55,0H5
			C2.2,0,0,2.2,0,5v30c0,2.8,2.2,5,5,5h50c2.8,0,5-2.2,5-5V5C60,2.2,57.8,0,55,0L55,0z"/>
	</g>
</g>
</svg>
