<?xml version="1.0" encoding="utf-8"?>
<!-- Generator: Adobe Illustrator 18.0.0, SVG Export Plug-In . SVG Version: 6.00 Build 0)  -->
<!DOCTYPE svg PUBLIC "-//W3C//DTD SVG 1.1//EN" "http://www.w3.org/Graphics/SVG/1.1/DTD/svg11.dtd">
<svg version="1.1" id="Calque_1" xmlns="http://www.w3.org/2000/svg" xmlns:xlink="http://www.w3.org/1999/xlink" x="0px" y="0px"
	 viewBox="0 0 164.4 388.3" enable-background="new 0 0 164.4 388.3" xml:space="preserve">
<g>
	<path d="M86.3,27.9c1.4,0.4,2.8,0.7,4.1,1.3c5.3,2.2,6,4,5.9,8.3c-0.1,2.4,0.2,4.9-0.1,7.3c-0.1,1.4-0.9,2.8-1.4,4.1
		c-0.3,0.9-0.8,1.7-0.8,2.6c-0.1,6.1,0,12.2,0,18.4c0,2.2-0.4,2.8-2.6,3.4c-4.2,1.1-8.4,1.5-12.7,0.9c-2-0.2-3.9-0.7-5.9-1.2
		c-1.4-0.4-2-1.3-1.9-2.9c0.1-6.2,0.1-12.3,0-18.5c0-1-0.6-1.9-0.9-2.9c-0.4-1.1-1-2.2-1.1-3.4c-0.1-3.1,0.1-6.1-0.1-9.2
		c-0.1-2.8,1.1-4.6,3.4-5.8c1.4-0.8,3.1-1.2,4.6-1.8c0.5-0.2,1-0.4,1.5-0.6C81,27.9,83.6,27.9,86.3,27.9z"/>
	<path d="M102.1,178c2.3,5.8,4.6,11.5,6.7,17.3c3.4,9.2,6.8,18.5,9.8,27.8c1.2,3.8,1.6,7.9,2.1,11.9c1.3,9.9,1.2,19.8,1.2,29.8
		c0,29.6,0,59.2,0,88.8c0,1.9-0.6,3.3-1.6,4.8c-2.8,3.7-6.5,5.9-11.1,6.5c-4.9,0.6-9.8,1.2-14.8,1.4c-6.9,0.3-13.9,0.6-20.8,0.3
		c-6.6-0.3-13.3-1.2-19.9-2.2c-4.1-0.6-7.3-3.2-9.5-6.7c-0.7-1.2-1.2-2.8-1.2-4.2c-0.1-33.4-0.1-66.8,0-100.2
		c0-8.8,0.4-17.6,2.3-26.2c1.3-6,3.3-11.9,5.4-17.7c3.5-9.5,7.3-19,10.9-28.5c0.2-0.5,0.4-1,0.4-1.4c0-0.8-0.4-1.2-1.3-0.9
		c-2.7,0.9-5.3,1.8-8.1,2.6c-1.1,0.3-1.8,0-2.3-1.3c-2.5-5.9-2.5-12-2.2-18.2c0.2-3.3,1.3-6.6,2.1-9.8c0.5-1.8,1.2-3.6,1.8-5.4
		c0.1-0.3,0.6-0.7,0.9-0.7c3,0.7,6,1.3,9,2.1c2.4,0.6,4.6,1.6,7,2.3c0.3,0.1,1.1-0.3,1.2-0.7c0.3-0.8,0.3-1.6,0.3-2.5
		c0.1-7.5,0.2-14.9,0.3-22.4c0-0.4,0-1.1-0.2-1.3c-1.6-1.4-1.1-3.3-1.2-5c0-3.5,0.1-7,0-10.5c-0.1-1.8,0.6-2.8,2.3-3.3
		c4.5-1.5,9.2-1.8,13.8-1.3c2.5,0.2,5,0.8,7.5,1.3c1.6,0.3,2.3,1.3,2.3,3.1c-0.1,4.3,0,8.7-0.1,13c0,0.7-0.4,1.4-0.7,2.1
		c-0.2,0.6-0.6,1.2-0.6,1.8c0.1,7.6,0.2,15.1,0.3,22.7c0,0.4,0,0.8,0.1,1.2c0.3,2,0.5,1.9,2.3,1.3c2.5-0.9,5.2-1.6,7.8-2.3
		c2.3-0.6,4.6-1.2,7-1.6c0.5-0.1,1.5,0.3,1.6,0.7c1.1,3.5,2.3,6.9,2.9,10.5c0.6,3.4,0.5,6.9,0.7,10.4c0.3,4.5-0.8,8.8-2.4,12.9
		c-0.2,0.5-1.4,1-2,0.9C109,180.3,105.7,179.2,102.1,178z"/>
</g>
</svg>
