<?xml version="1.0" encoding="utf-8"?>
<!-- Generator: Adobe Illustrator 18.0.0, SVG Export Plug-In . SVG Version: 6.00 Build 0)  -->
<!DOCTYPE svg PUBLIC "-//W3C//DTD SVG 1.1//EN" "http://www.w3.org/Graphics/SVG/1.1/DTD/svg11.dtd">
<svg version="1.1" id="Calque_1" xmlns="http://www.w3.org/2000/svg" xmlns:xlink="http://www.w3.org/1999/xlink" x="0px" y="0px"
	 viewBox="0 0 60 40" enable-background="new 0 0 60 40" xml:space="preserve">
<g>
	<path fill="#5565AF" d="M60,35c0,2.8-2.2,5-5,5H5c-2.8,0-5-2.2-5-5V5c0-2.8,2.2-5,5-5h50c2.8,0,5,2.2,5,5V35z"/>
	<path opacity="4.000000e-02" fill="#FFFFFF" enable-background="new    " d="M58.5,1.5C59.4,2.4,60,3.6,60,5v15v15
		c0,1.4-0.6,2.6-1.5,3.5C57.6,39.4,56.4,40,55,40H30H5c-1.4,0-2.6-0.6-3.5-1.5L58.5,1.5z"/>
	<path fill="#56B1D9" d="M30,0"/>
	<g>
		<path fill="#EA564B" d="M30,13.4c-1.8-2.1-4.5-3.4-7.5-3.4c-5.5,0-10,4.5-10,10c0,5.5,4.5,10,10,10c3,0,5.7-1.3,7.5-3.4
			c-1.6-1.8-2.5-4.1-2.5-6.6S28.4,15.2,30,13.4z"/>
		<path fill="#EA564B" d="M30,13.4c-1.6,1.8-2.5,4.1-2.5,6.6s0.9,4.8,2.5,6.6c1.6-1.8,2.5-4.1,2.5-6.6S31.6,15.2,30,13.4z"/>
	</g>
	<path fill="#E9D419" d="M37.5,10c-3,0-5.7,1.3-7.5,3.4c-0.4,0.5-0.8,1-1.1,1.6h2.3c0.4,0.6,0.6,1.3,0.9,2h-4
		c-0.2,0.6-0.4,1.3-0.4,2h4.9c0,0.3,0.1,0.7,0.1,1c0,0.3,0,0.7-0.1,1h-4.9c0.1,0.7,0.2,1.4,0.4,2H32c-0.2,0.7-0.5,1.4-0.9,2h-2.3
		c0.3,0.6,0.7,1.1,1.1,1.6c1.8,2.1,4.5,3.4,7.5,3.4c5.5,0,10-4.5,10-10C47.5,14.5,43,10,37.5,10z"/>
	<g>
		<path fill="#7684B7" d="M55,1c2.2,0,4,1.8,4,4v30c0,2.2-1.8,4-4,4H5c-2.2,0-4-1.8-4-4V5c0-2.2,1.8-4,4-4H55 M55,0H5
			C2.2,0,0,2.2,0,5v30c0,2.8,2.2,5,5,5h50c2.8,0,5-2.2,5-5V5C60,2.2,57.8,0,55,0L55,0z"/>
	</g>
</g>
</svg>
