<?xml version="1.0" ?><!DOCTYPE svg  PUBLIC '-//W3C//DTD SVG 1.1//EN'  'http://www.w3.org/Graphics/SVG/1.1/DTD/svg11.dtd'><svg enable-background="new 0 0 128 128" height="128px" id="Layer_1" version="1.1" viewBox="0 0 128 128" width="128px" xml:space="preserve" xmlns="http://www.w3.org/2000/svg" xmlns:xlink="http://www.w3.org/1999/xlink"><path d="M101.444,13.439L77.4,37.482L8.34,16.134c-1.237-0.381-2.992,0.054-3.906,0.967l-3.835,3.836  c-0.914,0.914-0.764,2.219,0.333,2.898l55.616,34.499l-20.52,20.52c-3.795,3.796-6.613,7.267-8.674,10.368l-15.552-4.252  c-1.246-0.342-3.013,0.127-3.927,1.041l-3.005,3.005c-0.916,0.915-0.814,2.295,0.22,3.066l15.866,11.843  c0.157,0.117,0.327,0.254,0.5,0.399l-0.209,0.429c-1.535,3.156-0.99,3.704,2.17,2.168l0.427-0.206  c0.145,0.171,0.282,0.342,0.399,0.499l11.842,15.861c0.773,1.037,2.152,1.137,3.066,0.223l3.005-3.007  c0.913-0.913,1.382-2.68,1.039-3.928l-4.25-15.548c3.104-2.061,6.573-4.88,10.368-8.675l20.439-20.439l34.236,55.195  c0.681,1.099,1.988,1.248,2.899,0.336l3.838-3.837c0.913-0.915,1.349-2.672,0.966-3.906L90.508,50.948l24.223-24.223  c13.224-13.224,14.906-22.652,12.136-25.422C124.096-1.467,114.668,0.215,101.444,13.439z"/></svg>